<svg width="256" height="256" viewBox="0 0 256 256" xmlns="http://www.w3.org/2000/svg">
  <defs>
    <linearGradient id="g" x1="0" y1="0" x2="0" y2="1">
      <stop offset="0%" stop-color="#7AC943"></stop>
      <stop offset="100%" stop-color="#4CAF50"></stop>
    </linearGradient>
  </defs>
  <ellipse cx="128" cy="214" rx="72" ry="12" fill="#000" opacity="0.08"></ellipse>
  <g>
    <circle cx="128" cy="64" r="28" fill="url(#g)"></circle>
    <rect x="108" y="94" width="40" height="14" rx="7" fill="url(#g)"></rect>
    <path d="M84 128C84 108 172 108 172 128C172 144 158 154 149 166C144 172 142 180 142 188H114C114 180 112 172 107 166C98 154 84 144 84 128Z" fill="url(#g)"></path>
    <rect x="86" y="188" width="84" height="18" rx="9" fill="url(#g)"></rect>
    <rect x="72" y="206" width="112" height="16" rx="8" fill="url(#g)"></rect>
  </g>
</svg>
