<svg xmlns="http://www.w3.org/2000/svg" viewBox="0 0 48 48" width="48px" height="48px">
<linearGradient id="IGgrad" x1="9.993" x2="40.615" y1="9.993" y2="40.615" gradientUnits="userSpaceOnUse">
<stop offset="0" stop-color="#f58529"></stop>
<stop offset=".5" stop-color="#dd2a7b"></stop>
<stop offset="1" stop-color="#8134af"></stop>
</linearGradient>
<path fill="url(#IGgrad)" d="M34.75,4H13.25C8.71,4,5,7.71,5,12.25v21.5C5,40.29,8.71,44,13.25,44h21.5C39.29,44,43,40.29,43,35.75v-21.5C43,7.71,39.29,4,34.75,4z M41,35.75C41,39.2,38.2,42,34.75,42H13.25C9.8,42,7,39.2,7,35.75v-21.5C7,9.8,9.8,7,13.25,7h21.5C38.2,7,41,9.8,41,13.25V35.75z"></path>
<path fill="#fff" d="M24,14c-5.52,0-10,4.48-10,10s4.48,10,10,10c5.52,0,10-4.48,10-10S29.52,14,24,14z M24,32 c-4.42,0-8-3.58-8-8s3.58-8,8-8c4.42,0,8,3.58,8,8S28.42,32,24,32z"></path>
<circle cx="34" cy="14" r="2" fill="#fff"></circle>
</svg>
