<svg xmlns="http://www.w3.org/2000/svg" viewBox="0 0 32 32" width="48" height="48" fill="#bd081c">
  <path d="M16 0C7.163 0 0 7.164 0 16c0 6.548 4.033 12.155 9.746 14.44-.135-1.226-.257-3.105.053-4.447.28-1.191 1.8-7.576 1.8-7.576s-.458-.916-.458-2.27c0-2.127 1.233-3.715 2.77-3.715 1.305 0 1.933.98 1.933 2.155 0 1.313-.837 3.275-1.269 5.096-.36 1.518.762 2.754 2.264 2.754 2.717 0 4.805-2.864 4.805-6.993 0-3.66-2.63-6.216-6.387-6.216-4.352 0-6.904 3.264-6.904 6.643 0 1.316.506 2.73 1.14 3.495a.457.457 0 0 1 .106.438c-.115.483-.376 1.518-.428 1.73-.066.28-.214.34-.495.204-1.845-.86-3.004-3.552-3.004-5.713 0-4.663 3.39-8.944 9.784-8.944 5.135 0 9.123 3.66 9.123 8.543 0 5.107-3.22 9.226-7.693 9.226-1.503 0-2.917-.777-3.402-1.684l-.926 3.533c-.334 1.287-1.238 2.9-1.847 3.885A16.003 16.003 0 0 0 32 16c0-8.837-7.163-16-16-16z"></path>
</svg>
